<?xml version="1.0" encoding="utf-8"?>
<!-- Generator: Adobe Illustrator 23.1.0, SVG Export Plug-In . SVG Version: 6.00 Build 0)  -->
<svg version="1.1" id="Layer_1" xmlns="http://www.w3.org/2000/svg" xmlns:xlink="http://www.w3.org/1999/xlink" x="0px" y="0px"
	 viewBox="0 0 578 156" style="enable-background:new 0 0 578 156;" xml:space="preserve">
<style type="text/css">
	.st0{enable-background:new    ;}
	.st1{fill:#BF0005;}
</style>
<g class="st0">
	<path class="st1" d="M126.2,44.6h13.7l14.4,35.2h0.6l14.4-35.2H183V97h-10.7V62.9h-0.4l-13.6,33.8h-7.3l-13.6-34h-0.4V97h-10.7
		V44.6z"/>
	<path class="st1" d="M206.2,97.8c-4,0-7.5-0.8-10.4-2.5c-2.9-1.6-5.1-4-6.7-7c-1.6-3-2.4-6.6-2.4-10.8c0-4,0.8-7.6,2.4-10.6
		c1.6-3.1,3.8-5.4,6.6-7.1c2.9-1.7,6.2-2.6,10.1-2.6c2.6,0,5,0.4,7.2,1.2c2.2,0.8,4.2,2.1,5.9,3.7c1.7,1.7,3,3.7,3.9,6.2
		c0.9,2.5,1.4,5.4,1.4,8.8v3H191v-6.8h22.9c0-1.6-0.3-3-1-4.2c-0.7-1.2-1.6-2.2-2.8-2.9s-2.6-1-4.2-1c-1.7,0-3.1,0.4-4.4,1.1
		c-1.3,0.8-2.3,1.8-3,3s-1.1,2.7-1.1,4.2v6.4c0,1.9,0.4,3.6,1.1,5c0.7,1.4,1.8,2.5,3.1,3.3c1.3,0.8,2.9,1.2,4.7,1.2
		c1.2,0,2.3-0.2,3.3-0.5s1.9-0.9,2.6-1.5s1.3-1.5,1.6-2.5l10.1,0.7c-0.5,2.4-1.6,4.5-3.1,6.3c-1.6,1.8-3.6,3.2-6.1,4.2
		C212.3,97.3,209.4,97.8,206.2,97.8z"/>
	<path class="st1" d="M227.7,97V57.7h10.4v6.9h0.5c0.8-2.3,2.2-4.1,4.1-5.4c1.9-1.3,4.2-2,6.9-2c2.7,0,5,0.7,6.9,2
		c1.9,1.3,3.2,3.1,3.8,5.4h0.4c0.8-2.3,2.3-4.1,4.4-5.4c2.1-1.4,4.6-2,7.5-2c3.7,0,6.6,1.2,8.9,3.5c2.3,2.3,3.4,5.6,3.4,9.9V97
		h-10.9V72.7c0-2.2-0.6-3.8-1.7-4.9s-2.6-1.6-4.3-1.6c-2,0-3.5,0.6-4.6,1.9c-1.1,1.3-1.7,2.9-1.7,4.9v24H251V72.5
		c0-1.9-0.5-3.5-1.6-4.6c-1.1-1.1-2.5-1.7-4.3-1.7c-1.2,0-2.3,0.3-3.3,0.9c-1,0.6-1.7,1.4-2.3,2.5c-0.6,1.1-0.8,2.3-0.8,3.8V97
		H227.7z"/>
	<path class="st1" d="M307.7,97.8c-4,0-7.5-0.8-10.4-2.5c-2.9-1.6-5.1-4-6.7-7c-1.6-3-2.4-6.6-2.4-10.8c0-4,0.8-7.6,2.4-10.6
		c1.6-3.1,3.8-5.4,6.6-7.1c2.9-1.7,6.2-2.6,10.1-2.6c2.6,0,5,0.4,7.2,1.2c2.2,0.8,4.2,2.1,5.9,3.7c1.7,1.7,3,3.7,3.9,6.2
		c0.9,2.5,1.4,5.4,1.4,8.8v3h-33.2v-6.8h22.9c0-1.6-0.3-3-1-4.2c-0.7-1.2-1.6-2.2-2.8-2.9c-1.2-0.7-2.6-1-4.2-1
		c-1.7,0-3.1,0.4-4.4,1.1c-1.3,0.8-2.3,1.8-3,3s-1.1,2.7-1.1,4.2v6.4c0,1.9,0.4,3.6,1.1,5c0.7,1.4,1.8,2.5,3.1,3.3
		c1.3,0.8,2.9,1.2,4.7,1.2c1.2,0,2.3-0.2,3.3-0.5s1.9-0.9,2.6-1.5s1.3-1.5,1.6-2.5l10.1,0.7c-0.5,2.4-1.6,4.5-3.1,6.3
		c-1.6,1.8-3.6,3.2-6.1,4.2C313.8,97.3,310.9,97.8,307.7,97.8z"/>
	<path class="st1" d="M337.6,57.7l7.2,13.7l7.4-13.7h11.2L352,77.4L363.7,97h-11.1l-7.7-13.6L337.2,97H326l11.7-19.6l-11.3-19.6
		H337.6z"/>
	<path class="st1" d="M382.5,97.8c-4,0-7.5-0.9-10.4-2.6c-2.9-1.7-5.1-4.1-6.6-7.1c-1.5-3.1-2.3-6.6-2.3-10.5c0-4,0.8-7.6,2.3-10.6
		c1.6-3,3.8-5.4,6.7-7.1c2.9-1.7,6.3-2.6,10.3-2.6c3.4,0,6.4,0.6,9,1.9c2.6,1.2,4.6,3,6.1,5.2s2.3,4.9,2.5,7.9h-10.3
		c-0.3-2-1.1-3.5-2.3-4.7c-1.2-1.2-2.9-1.8-4.8-1.8c-1.7,0-3.2,0.5-4.4,1.4c-1.3,0.9-2.2,2.2-2.9,4c-0.7,1.7-1,3.8-1,6.3
		c0,2.5,0.3,4.6,1,6.4s1.7,3.1,2.9,4c1.3,0.9,2.7,1.4,4.4,1.4c1.2,0,2.4-0.3,3.4-0.8c1-0.5,1.8-1.3,2.5-2.2s1.1-2.2,1.3-3.5h10.3
		c-0.2,3-1,5.6-2.4,7.9c-1.5,2.3-3.5,4.1-6,5.3S386,97.8,382.5,97.8z"/>
	<path class="st1" d="M414.4,74.3V97h-10.9V44.6h10.6v20h0.5c0.9-2.3,2.3-4.1,4.3-5.5c2-1.3,4.5-2,7.4-2c2.7,0,5.1,0.6,7.1,1.8
		s3.6,2.9,4.8,5.1c1.1,2.2,1.7,4.8,1.7,7.9v25h-10.9V73.9c0-2.4-0.6-4.3-1.8-5.7c-1.2-1.3-3-2-5.2-2c-1.5,0-2.8,0.3-3.9,0.9
		c-1.1,0.6-2,1.5-2.7,2.7C414.7,71.2,414.4,72.6,414.4,74.3z"/>
	<path class="st1" d="M462.5,112.3c-3.5,0-6.5-0.5-9.1-1.4c-2.5-1-4.5-2.2-6-3.9c-1.5-1.6-2.4-3.4-2.9-5.4l10.1-1.4
		c0.3,0.7,0.8,1.4,1.5,2c0.7,0.6,1.5,1.2,2.6,1.6s2.4,0.6,4,0.6c2.4,0,4.3-0.6,5.9-1.7c1.5-1.1,2.3-3,2.3-5.5V90h-0.5
		c-0.5,1.1-1.2,2.1-2.1,3.1c-1,1-2.2,1.8-3.7,2.4c-1.5,0.6-3.3,0.9-5.4,0.9c-2.9,0-5.6-0.7-8-2.1c-2.4-1.4-4.3-3.5-5.8-6.3
		c-1.4-2.8-2.1-6.4-2.1-10.8c0-4.4,0.7-8.2,2.2-11.1c1.4-3,3.4-5.2,5.8-6.7c2.4-1.5,5.1-2.2,7.9-2.2c2.2,0,4,0.4,5.5,1.1
		c1.5,0.7,2.7,1.7,3.6,2.8c0.9,1.1,1.6,2.2,2.1,3.2h0.4v-6.6h10.8v39.7c0,3.3-0.8,6-2.5,8.2s-3.9,3.9-6.8,5
		C469.6,111.7,466.3,112.3,462.5,112.3z M462.7,88.3c1.8,0,3.2-0.4,4.5-1.3c1.2-0.9,2.2-2.1,2.8-3.8c0.7-1.6,1-3.6,1-5.9
		c0-2.3-0.3-4.3-1-6c-0.6-1.7-1.6-3-2.8-4c-1.2-0.9-2.7-1.4-4.5-1.4c-1.8,0-3.3,0.5-4.5,1.4c-1.2,1-2.2,2.3-2.8,4
		c-0.6,1.7-0.9,3.7-0.9,5.9c0,2.3,0.3,4.2,1,5.9c0.6,1.6,1.6,2.9,2.8,3.8C459.5,87.8,461,88.3,462.7,88.3z"/>
</g>
</svg>
